<svg xmlns="http://www.w3.org/2000/svg" xmlns:xlink="http://www.w3.org/1999/xlink" width="1920" height="450" viewBox="0 0 1920 450"><defs><style>.a,.f{fill:none;}.b{fill:#01234c;}.c{opacity:0.4;}.d{clip-path:url(#a);}.e{opacity:0.6;fill:url(#b);}.f{stroke:#707070;stroke-miterlimit:10;}</style><clipPath id="a"><rect class="a" width="1920" height="450" transform="translate(0 130)"/></clipPath><linearGradient id="b" y1="0.5" x2="1" y2="0.5" gradientUnits="objectBoundingBox"><stop offset="0" stop-color="#3aa2d4"/><stop offset="1" stop-color="#3972b0" stop-opacity="0"/></linearGradient></defs><g transform="translate(0 -130)"><rect class="b" width="1920" height="450" transform="translate(0 130)"/><g class="c"><g class="d"><path class="e" d="M1837.24-115.768l273.7-246.276,277.818,54.681L2170.211-51.645ZM755.485,227.477,88,671.257H809.793l422.089-352.245ZM2060-372.071l-310.742-61.162L1398.764-200.209l369.927,71.24ZM962.579,671.257H1552.4l213.371-249.664-433.215-83.238ZM1712.51-82.086,1331.36-155.4,832.34,176.38l465.206,87.834ZM1394.585,282.535l421.94,79.665L2127.939-2.183,1784.433-68.252Z"/><path class="f" d="M2170.211-148.765l220.978-258.564-280.25-51.835-273.7,246.276Z"/><path class="f" d="M755.485,130.358,88,574.137H809.793l422.089-352.245Z"/><path class="f" d="M2059.995-469.191l-310.742-61.162L1398.764-297.329l369.927,71.24Z"/><path class="f" d="M962.579,574.137h589.816l213.371-249.664-433.215-83.238Z"/><path class="f" d="M1712.51-179.205l-381.15-73.31L832.34,79.26l465.206,87.834Z"/><path class="f" d="M1394.585,185.416l421.939,79.665L2127.939-99.3l-343.506-66.069Z"/></g></g></g></svg>