<svg xmlns="http://www.w3.org/2000/svg" xmlns:xlink="http://www.w3.org/1999/xlink" width="1920" height="1080" viewBox="0 0 1920 1080"><defs><style>.a{fill:none;}.b{clip-path:url(#a);}.c,.g,.i{opacity:0.3;}.c{fill:url(#b);}.d{opacity:0.8;fill:url(#c);}.e,.f,.h{opacity:0.36;}.e{fill:url(#d);}.f{fill:url(#e);}.g{fill:url(#f);}.h{fill:url(#g);}.i{fill:url(#h);}</style><clipPath id="a"><rect class="a" width="1920" height="1080"/></clipPath><linearGradient id="b" x1="0.736" y1="0.231" x2="0.736" y2="1.641" gradientUnits="objectBoundingBox"><stop offset="0" stop-color="#c4e6f9" stop-opacity="0"/><stop offset="0.048" stop-color="#bee2f7" stop-opacity="0.051"/><stop offset="0.711" stop-color="#73b9de" stop-opacity="0.729"/><stop offset="1" stop-color="#56a9d4"/></linearGradient><linearGradient id="c" x1="0.261" y1="-0.67" x2="0.836" y2="1.294" gradientUnits="objectBoundingBox"><stop offset="0" stop-color="#3ac1bf" stop-opacity="0.8"/><stop offset="1" stop-color="#3ac1bf" stop-opacity="0"/></linearGradient><linearGradient id="d" x1="0.646" y1="0.178" x2="1.335" y2="1.136" gradientUnits="objectBoundingBox"><stop offset="0" stop-color="#78c8d5" stop-opacity="0.502"/><stop offset="0.463" stop-color="#96bae2" stop-opacity="0.161"/><stop offset="1" stop-color="#3071b7" stop-opacity="0"/></linearGradient><linearGradient id="e" x1="0.648" y1="-0.261" x2="1.173" y2="1.441" gradientUnits="objectBoundingBox"><stop offset="0" stop-color="#398bfb"/><stop offset="1" stop-color="#3879bd" stop-opacity="0"/></linearGradient><linearGradient id="f" x1="0.486" y1="-2.174" x2="1.012" y2="0.643" gradientUnits="objectBoundingBox"><stop offset="0" stop-color="#fff" stop-opacity="0.502"/><stop offset="0.463" stop-color="#96bae2" stop-opacity="0.161"/><stop offset="1" stop-color="#3071b7" stop-opacity="0"/></linearGradient><linearGradient id="g" x1="0.132" y1="0.946" x2="1.024" y2="0.035" gradientUnits="objectBoundingBox"><stop offset="0" stop-color="#3ac1bf"/><stop offset="1" stop-color="#3ac1bf" stop-opacity="0"/></linearGradient><linearGradient id="h" x1="-0.205" y1="0.5" x2="1.205" y2="0.5" xlink:href="#b"/></defs><g class="b"><rect class="c" width="1970.627" height="1397.861" transform="translate(-26.306 -302.076)"/><path class="d" d="M3758.749-571.8-383.513,408.277V1578.5H3853l8.712-2068.543C3861.712-544.084,3811.389-584.047,3758.749-571.8Z"/><path class="e" d="M1949.392,162.9,183.992-451.879C124.417-471.8-34.924-427.466-34.924-364.648v2379.6H1949.392Z"/><path class="f" d="M-125.328,296.879V1576.191H2269.943v-714.9Z"/><path class="g" d="M3543.179,882.237v993.916H214.814V1615.028l3220.6-813.29C3489.211,785.823,3543.179,826.137,3543.179,882.237Z"/><path class="h" d="M911.279-197.578,1944.392,160.895l18.367-384.276-661.206-41.93Z"/><rect class="i" width="1397.653" height="1969.421" transform="translate(1945.363 -301.925) rotate(90)"/><rect class="a" width="1920" height="1280" transform="translate(7 -189)"/></g></svg>