<svg xmlns="http://www.w3.org/2000/svg" xmlns:xlink="http://www.w3.org/1999/xlink" width="1920" height="540" viewBox="0 0 1920 540"><defs><style>.a{fill:none;}.b{opacity:0.3;}.c{clip-path:url(#a);}.d,.e,.f,.h{opacity:0.8;}.d{fill:url(#b);}.e{fill:url(#c);}.f{fill:url(#d);}.g{opacity:0.4;fill:url(#e);}.h{fill:url(#f);}.i{opacity:0.9;fill:url(#g);}</style><clipPath id="a"><rect class="a" width="1920" height="540" transform="translate(0 5583.266)"/></clipPath><linearGradient id="b" x1="10.856" y1="-0.805" x2="11.267" y2="1.155" gradientUnits="objectBoundingBox"><stop offset="0" stop-color="#2daab5" stop-opacity="0.698"/><stop offset="1" stop-color="#306baa" stop-opacity="0"/></linearGradient><linearGradient id="c" x1="11.244" y1="-0.813" x2="11.654" y2="1.147" xlink:href="#b"/><linearGradient id="d" x1="12.117" y1="-0.284" x2="12.762" y2="0.978" gradientUnits="objectBoundingBox"><stop offset="0" stop-color="#3aa2d4"/><stop offset="1" stop-color="#3972b0" stop-opacity="0"/></linearGradient><linearGradient id="e" x1="15.308" y1="-0.242" x2="16.039" y2="0.934" gradientUnits="objectBoundingBox"><stop offset="0" stop-color="#fff" stop-opacity="0.502"/><stop offset="0.463" stop-color="#92b3d9" stop-opacity="0.161"/><stop offset="1" stop-color="#306baa" stop-opacity="0"/></linearGradient><linearGradient id="f" x1="13.338" y1="-0.714" x2="13.786" y2="1.013" gradientUnits="objectBoundingBox"><stop offset="0" stop-color="#3882bd"/><stop offset="1" stop-color="#3972b0" stop-opacity="0"/></linearGradient><linearGradient id="g" x1="22.102" y1="-0.938" x2="22.544" y2="0.793" gradientUnits="objectBoundingBox"><stop offset="0" stop-color="#544c93" stop-opacity="0.698"/><stop offset="1" stop-color="#376aa9" stop-opacity="0"/></linearGradient></defs><g class="b" transform="translate(0 -5583.266)"><g class="c"><path class="d" d="M-282.182,6335.925l974.241-176.156a9.807,9.807,0,0,0,8.007-9.828L698.275,5984.4a9.769,9.769,0,0,0-11.482-9.51L-287.448,6151.05a9.805,9.805,0,0,0-8.007,9.828l1.791,165.537A9.768,9.768,0,0,0-282.182,6335.925Z"/><path class="e" d="M-473.77,6493.7l974.241-176.156a9.808,9.808,0,0,0,8.007-9.829l-1.792-165.536a9.769,9.769,0,0,0-11.481-9.511l-974.241,176.156a9.808,9.808,0,0,0-8.008,9.829l1.792,165.536A9.769,9.769,0,0,0-473.77,6493.7Z"/><path class="f" d="M505.464,6440.741,1252,6300.054a9.808,9.808,0,0,0,8.007-9.828l-1.792-520.214a9.769,9.769,0,0,0-11.482-9.511L500.2,5901.188a9.806,9.806,0,0,0-8.007,9.828l1.791,520.214A9.77,9.77,0,0,0,505.464,6440.741Z"/><path class="g" d="M-105.147,6430.824l668.472-124.017a9.808,9.808,0,0,0,8.008-9.829l-1.792-598.108a9.769,9.769,0,0,0-11.482-9.511l-668.473,124.018a9.807,9.807,0,0,0-8.007,9.828l1.792,598.109A9.769,9.769,0,0,0-105.147,6430.824Z"/><path class="h" d="M680.389,6258.454l660.1-114.724a9.808,9.808,0,0,0,8.008-9.829v-172a9.768,9.768,0,0,0-11.482-9.51L675.123,6068.8a9.8,9.8,0,0,0-8.007,9.828l1.791,170.317A9.769,9.769,0,0,0,680.389,6258.454Z"/><path class="i" d="M-160.177,6103.393l472.076-86.5a9.806,9.806,0,0,0,8.007-9.828l-1.792-111.8a9.769,9.769,0,0,0-11.482-9.511l-472.075,86.5a9.808,9.808,0,0,0-8.008,9.829l1.792,111.8A9.769,9.769,0,0,0-160.177,6103.393Z"/></g></g></svg>