<svg xmlns="http://www.w3.org/2000/svg" xmlns:xlink="http://www.w3.org/1999/xlink" width="1920" height="880.151"
    viewBox="0 0 1920 880.151">
    <defs>
        <style>
            .a,
            .c,
            .d,
            .e,
            .f,
            .g,
            .h,
            .i,
            .j,
            .k,
            .l,
            .m,
            .n {
                fill: none;
            }

            .b {
                clip-path: url(#a);
            }

            .c,
            .d,
            .e,
            .f,
            .g,
            .h,
            .i,
            .j,
            .k,
            .l,
            .m,
            .n {
                stroke: #fff;
                stroke-miterlimit: 10;
                stroke-width: 2px;
            }

            .d {
                opacity: 0.05;
            }

            .e {
                opacity: 0.1;
            }

            .f {
                opacity: 0.2;
            }

            .g {
                opacity: 0.15;
            }

            .h {
                opacity: 0.3;
            }

            .i {
                opacity: 0.4;
            }

            .j {
                opacity: 0.5;
            }

            .k {
                opacity: 0.6;
            }

            .l {
                opacity: 0.7;
            }

            .m {
                opacity: 0.8;
            }

            .n {
                opacity: 0.9;
            }
        </style>
        <clipPath id="a">
            <rect class="a" width="1920" height="880.151" transform="translate(0 1904.382)" />
        </clipPath>
    </defs> <path d="M0 0h1920v880.151H0z" fill="#01234c" />
    <g class="b" transform="translate(0 -1904.382)">
        <path class="c"
            d="M-189.87,1339.145q-21.7,21.155-42.235,43.465a1117.2,1117.2,0,0,0-286.127,898.162l43.8,342.851A1089.118,1089.118,0,0,0-341.349,3023.1q22.881,40.321,49.135,78.6" />
        <path class="d"
            d="M-43.4,1465.106q-24.461,22.984-47.214,47.707A924.919,924.919,0,0,0-327.5,2256.4q21.9,171.426,43.8,342.854A896.824,896.824,0,0,0-118,3015.036" />
        <path class="e"
            d="M88.716,1578.729q-27.225,24.351-52,51.266a751.855,751.855,0,0,0-192.565,604.477q21.9,171.426,43.8,342.854A723.769,723.769,0,0,0,27.223,2920.359q6.151,8.189,12.533,16.2" />
        <path class="e"
            d="M206.611,1680.118A598.057,598.057,0,0,0-3.266,2214.977l43.8,342.856A569.933,569.933,0,0,0,150.21,2827.97q14.8,19.708,31.271,38.085" />
        <path class="f"
            d="M337.219,1792.446a598.045,598.045,0,0,0-96.436,408.78q21.9,171.429,43.8,342.856a570.036,570.036,0,0,0,69.644,209.069q4.346,7.656,8.925,15.177" />
        <path class="g"
            d="M272.5,1736.781a544.565,544.565,0,0,0-51.1,64.727,598.049,598.049,0,0,0-99.4,413.16q21.9,171.429,43.8,342.856A569.9,569.9,0,0,0,275.48,2827.661q14.8,19.709,31.271,38.085" />
        <path class="f"
            d="M477.424,1913.02l-15.359,9.053a251.952,251.952,0,0,0-122.021,249.041q21.9,171.432,43.8,342.859a223.915,223.915,0,0,0,133.01,177.068" />
        <path class="h"
            d="M539.02,1965.992l-37.905,22.341a175.063,175.063,0,0,0-84.78,173.034l43.8,342.859a147.011,147.011,0,0,0,87.33,116.258c22.732,9.861,37.995,16.484,60.725,26.345" />
        <path class="i"
            d="M1115.019,2127.211q32.142,22.553,64.283,45.1a163.563,163.563,0,0,1,66.9,104.273l42.9,233.339a105.538,105.538,0,0,1-53.474,111.949,108.647,108.647,0,0,1-18.251,7.8l-60.772,18.705" />
        <path class="h"
            d="M1196.269,2090.264q13.6,9.543,27.207,19.089a240.475,240.475,0,0,1,98.365,153.326q21.45,116.67,42.9,233.338a182.455,182.455,0,0,1-92.48,193.48q-7.54,4.086-15.445,7.45-7.989,3.4-16.264,6.065c-7.938,2.441-9.827,3.023-17.763,5.466" />
        <path class="f"
            d="M1277.282,2053.425a317.424,317.424,0,0,1,120.2,195.347l42.9,233.338A259.278,259.278,0,0,1,1289.73,2766.5c-2.516,1.107.036.082-2.516,1.107" />
        <path class="f"
            d="M1611.178,1901.59q17.289,22.472,32.6,46.334a663.38,663.38,0,0,1,94.1,238.268q21.45,116.67,42.9,233.336a605.7,605.7,0,0,1,6.595,173.545q-2.919,27.439-8.325,54.536a605.593,605.593,0,0,1-229.357,365.034" />
        <path class="f"
            d="M1560.553,1922.643q17.289,22.472,32.6,46.335a663.381,663.381,0,0,1,94.1,238.267l42.9,233.337a605.609,605.609,0,0,1,6.595,173.545q-2.919,27.438-8.325,54.536A605.562,605.562,0,0,1,1499.068,3033.7" />
        <path class="f"
            d="M1453.543,1954.714q17.289,22.471,32.6,46.335a663.381,663.381,0,0,1,94.1,238.267q21.45,116.67,42.9,233.337a605.7,605.7,0,0,1,6.595,173.545q-2.919,27.438-8.325,54.536a605.562,605.562,0,0,1-229.357,365.033" />
        <path class="c"
            d="M1754.229,1836.54q9.8,13.961,19.016,28.323,21.312,33.216,39.349,68.385,18.053,35.2,32.643,72.035,14.634,36.951,25.629,75.21,11.051,38.463,18.3,77.886l42.9,233.335a759.471,759.471,0,0,1-6.513,306.316q-7.883,34.537-18.966,68.235a759.566,759.566,0,0,1-212.006,326q-14.37,13-29.389,25.246" />
        <path class="c"
            d="M1896.3,1771.934q3.237,4.913,6.416,9.868,25.32,39.465,46.754,81.254,21.447,41.824,38.784,85.59,17.389,43.908,30.454,89.368,13.133,45.7,21.748,92.551l42.9,233.335a913.644,913.644,0,0,1,14.764,188.307q-.7,27.657-3.078,55.239-2.921,33.909-8.362,67.538a913.336,913.336,0,0,1-278.655,521.94q-13.683,12.762-27.883,24.956" />
        <path class="c"
            d="M2055.462,1699.556q25.775,41.223,47.99,84.534,25.269,49.275,45.7,100.84,20.487,51.735,35.881,105.295,15.472,53.856,25.625,109.05l42.9,233.334a1086.347,1086.347,0,0,1-327.5,990.871q-8.4,7.828-16.956,15.482" />
        <path class="c"
            d="M2231.806,1619.367q22.628,37.773,42.737,76.981,29.517,57.556,53.374,117.786,23.931,60.429,41.912,122.994,18.075,62.907,29.932,127.381,21.45,116.667,42.9,233.333,11.5,62.559,16.747,126.056,5,60.561,4.23,121.417a1278.634,1278.634,0,0,1-37.585,291.889q-15.007,60.424-35.849,119.2a1278.79,1278.79,0,0,1-278.468,453.673q-28.842,30.335-59.63,58.736" />
        <path class="c"
            d="M2904.433,4235.334q-965.7-876.809-1931.394-1753.618a23.609,23.609,0,0,0-26.381-3.658l-583.5,290.27L-3034.3,4458.435" />
        <path class="c"
            d="M3097.735,4403.746,975.186,2470.65a25.979,25.979,0,0,0-27.95-3.7q-907.166,452.9-1814.33,905.812" />
        <path class="c"
            d="M3194.286,4396.422q-1109.55-973.249-2219.1-1946.494a25.97,25.97,0,0,0-27.949-3.7c-104.651,49.537-649.462,314.983-754.112,364.52" />
        <path class="c"
            d="M2950.764,4107.517Q1963.26,3259.78,975.757,2412.042a22.89,22.89,0,0,0-23.788-3.024l-1899.722,859.8" />
        <path class="c" d="M2951.7,3820.174,998.266,2383.041a66.688,66.688,0,0,0-65.4-7.748L-966.653,3174.914" />
        <path class="c" d="M3025.558,3205.3,970.975,2366.416a80.323,80.323,0,0,0-41.584-6.1L-1020.967,2697.1" />
        <path class="c" d="M3086.052,2796.6,929.7,2354.138l-1960.138-83.225" />
        <path class="c" d="M3058.971,2541.19,929.7,2351.555l-1865.916-370.48" />
        <path class="c"
            d="M3067.137,2339.873l-2156.6,5.927a152.856,152.856,0,0,1-57.353-10.257Q-3.255,2031.334-859.7,1727.128" />
        <path class="c"
            d="M3039.557,2031.288Q1975.046,2188.546,910.537,2345.8a152.856,152.856,0,0,1-57.353-10.257Q61.428,1954.124-730.322,1572.707" />
        <path class="c"
            d="M3068.675,1689.71Q1977.77,2011.337,886.863,2332.965a65.436,65.436,0,0,1-55.438-8.355q-652.285-438.885-1304.57-877.772" />
        <path class="c"
            d="M3062.6,1507.728Q1970.3,1905.984,878,2304.244a47.06,47.06,0,0,1-44.425-6.608L-394.172,1395.969" />
        <path class="c"
            d="M3043.945,1415.4Q1960.789,1848.629,877.636,2281.862a47.068,47.068,0,0,1-44.426-6.611Q267.645,1823.814-297.922,1372.375" />
        <path class="c" d="M3056.178,1336.031,871.448,2266.078a28.4,28.4,0,0,1-28.454-4.169L-567.188,1091" />
        <path class="c" d="M3057.3,1269.765,873.728,2251.952a28.4,28.4,0,0,1-28.45-4.169L-777.956,876.152" />
        <path class="c" d="M3081.293,1243.985,874.284,2241.734a28.394,28.394,0,0,1-28.452-4.169L-980.849,662.829" />
        <path class="c"
            d="M3118.038,1216.363,875.584,2236.092a25.3,25.3,0,0,1-26.969-3.848L272.5,1736.781-1045.059,603.68" />
        <path class="i"
            d="M586.518,2007.567c-20.485,14.94-41.243,31.877-61.728,46.819A94.3,94.3,0,0,0,487.166,2145q25.238,163.143,50.476,326.281c5.792,37.428,32.744,64.109,62.62,87.386,24.6,19.17,45.085,39.6,68.837,58.391" />
        <path class="j"
            d="M633.556,2047.293l-52.669,40.866A92.972,92.972,0,0,0,547.2,2182.1c20.91,92.535,41.09,179.719,73.422,268.906,10.674,29.444,22.147,44.158,41.818,71.135,16.742,22.96,38.512,44.137,56.543,67.844" />
        <path class="k"
            d="M672.719,2080.972,636.4,2115.324a96.747,96.747,0,0,0-23.223,106.528q48.956,121.169,97.913,242.339a56.416,56.416,0,0,0,3.459,7.084q27.238,47.576,54.478,95.148" />
        <path class="l"
            d="M711.428,2114.264l-37.944,45.809a70.821,70.821,0,0,0-7.91,79.056q51.633,95.472,103.267,190.947a134.591,134.591,0,0,1,10.39,24.892l28.46,92.22" />
        <path class="m"
            d="M750.351,2147.737q-16.56,26.509-33.12,53.019a56.287,56.287,0,0,0,2.469,63.158q49.86,67.64,99.721,135.281a80.53,80.53,0,0,1,15.218,38.947q5.037,45.69,10.076,91.382" />
        <path class="n"
            d="M788.437,2180.49q-12.681,30.668-25.358,61.338c-7.8,18.548-3.573,41.549,10.882,55.55q39.792,35.666,79.578,71.331c17.5,16.949,23.325,40.749,23.514,65.11q2.679,39.13,5.359,78.259" />
        <path class="c"
            d="M819.776,2207.442q-9.956,33.462-19.91,66.926a41,41,0,0,0-1.054,11.11,52.523,52.523,0,0,0,29.233,45.05q28.448,14.254,56.9,28.508a41.057,41.057,0,0,1,22.9,26.153c1.383,4.819,2.853,23.369,2.829,27.85,1.478,29.354,2.593,51.538,4.07,80.894" />
        <path class="c"
            d="M840.021,2224.855q-4.318,34.106-8.639,68.209c-1.293,18.722.644,39.1,13.511,43.379l70.435,23.93a31.193,31.193,0,0,1,18.092,15.971,55.219,55.219,0,0,1,5.453,23.092c.434,29.734.764,52.167,1.2,81.9" />
        <path class="c"
            d="M861.033,2238.027q-1.706,45.792-3.41,91.588a14.039,14.039,0,0,0,11.692,14.365q44.1,7.448,88.2,14.891a11.579,11.579,0,0,1,9.631,12.108c-2.316,37.385-4.179,67.482-6.493,104.868" />
        <path class="c"
            d="M884.706,2231.945q7.689,41.856,15.379,83.714a26.821,26.821,0,0,0,13.024,18.415l78.506,45.089c13.851,6.411,12.024,25.47,10.566,31.771-7.713,27.863-13.8,49.848-21.51,77.711" />
        <path class="c"
            d="M911.241,2219.879q17.28,43.031,34.556,86.067a48.568,48.568,0,0,0,9.277,14.736q35.834,39.092,71.672,78.182a38.044,38.044,0,0,1,6.071,42.546l-32.478,65.8" />
        <path class="n"
            d="M939.212,2206.935q28.082,46.749,56.165,93.5,35.416,58.839,70.829,117.677a48.582,48.582,0,0,1-3.384,55.021q-20.628,26.32-41.256,52.644" />
        <path class="m"
            d="M968.508,2193.836q28.766,36.263,57.533,72.527a178.349,178.349,0,0,1,26.046,43.126q28.749,67.7,57.5,135.4a45.948,45.948,0,0,1-12.034,52.538q-27.924,23.319-55.849,46.634" />
        <path class="l"
            d="M995.594,2181.519q38.375,37.237,76.746,74.472a91.262,91.262,0,0,1,23.281,37.915q27.176,86.481,54.351,172.961a50.552,50.552,0,0,1-21.517,58.074q-31.06,20.744-62.122,41.484" />
        <path class="k"
            d="M1024.217,2168.5l85.02,68.684a97.842,97.842,0,0,1,33.7,53.392q24.391,102.1,48.78,204.2a47.445,47.445,0,0,1-26.684,54.294q-39.786,17.359-79.567,34.72" />
        <path class="j"
            d="M1054.081,2154.922l92.092,64.612a105.8,105.8,0,0,1,43.292,67.482q21.45,116.67,42.9,233.338a47.99,47.99,0,0,1-32.38,54.325q-46.515,14.313-93.029,28.629" />
    </g>
</svg>