<svg xmlns="http://www.w3.org/2000/svg" xmlns:xlink="http://www.w3.org/1999/xlink"  viewBox="0 0 849.089 726.711"><defs><style>.a{opacity:0.7;}.b,.e,.f{opacity:0.4;}.b{fill:url(#a);}.c{opacity:0.8;fill:url(#b);}.d{opacity:0.87;fill:url(#c);}.e{fill:url(#d);}.f{fill:url(#e);}.g{fill:none;}</style><linearGradient id="a" x1="2.995" y1="20.299" x2="3.556" y2="21.674" gradientUnits="objectBoundingBox"><stop offset="0" stop-color="#9ad5e6" stop-opacity="0.502"/><stop offset="0.463" stop-color="#96bae2" stop-opacity="0.161"/><stop offset="1" stop-color="#518fcc" stop-opacity="0"/></linearGradient><linearGradient id="b" x1="2.355" y1="17.672" x2="2.949" y2="19.435" gradientUnits="objectBoundingBox"><stop offset="0" stop-color="#6bc5db" stop-opacity="0.8"/><stop offset="1" stop-color="#518fcc" stop-opacity="0"/></linearGradient><linearGradient id="c" x1="7.912" y1="17.5" x2="5.358" y2="17.502" gradientUnits="objectBoundingBox"><stop offset="0" stop-color="#6fc3ee" stop-opacity="0.698"/><stop offset="1" stop-color="#59b9ea" stop-opacity="0"/></linearGradient><linearGradient id="d" x1="2.888" y1="22.664" x2="3.398" y2="24.115" gradientUnits="objectBoundingBox"><stop offset="0" stop-color="#58b8e9"/><stop offset="1" stop-color="#388ab3" stop-opacity="0"/></linearGradient><linearGradient id="e" x1="2.543" y1="13.285" x2="3.164" y2="14.491" gradientUnits="objectBoundingBox"><stop offset="0" stop-color="#6bc5f2" stop-opacity="0.8"/><stop offset="0.367" stop-color="#61b0ef" stop-opacity="0.502"/><stop offset="1" stop-color="#518fea" stop-opacity="0"/></linearGradient></defs><g class="a" transform="translate(-89.715 -1748.015)"><path class="b" d="M511.836,1446.018l578.019-159.208a16.525,16.525,0,0,1,21.791,15.635l.683,407.89-600.493.539Z" transform="translate(-296 682)"/><path class="c" d="M434.537,1307.79l795.415,190.134.477,284.5-815.362,1.365-.77-459.866A16.524,16.524,0,0,1,434.537,1307.79Z" transform="translate(-296 682)"/><path class="d" d="M1199.978,1730.346l4.905-527.9-198,56.922c-9.946,3.111-15.924,10.545-15.908,20.137l.755,451.192Z" transform="translate(-296 682)"/><path class="e" d="M1234.8,1412.747l-40.32,379-582.917.976-.289-218.057a12.471,12.471,0,0,1,9.561-12.146Z" transform="translate(-296 682)"/><g transform="translate(89.715 1791.376)"><path class="f" d="M385.716,1477.746,457.5,1758.107l655.154-1.1-.771-461.04A35.394,35.394,0,0,0,1085.1,1261.7L477.628,1109.376C385.643,1433.879,385.7,1466.7,385.716,1477.746Z" transform="translate(-385.715 -1109.376)"/></g><rect class="g" width="619.793" height="449.125" transform="translate(265.616 1748.015)"/><rect class="g" width="420" height="320" rx="20" transform="translate(454 1822)"/></g></svg>