<svg xmlns="http://www.w3.org/2000/svg" xmlns:xlink="http://www.w3.org/1999/xlink" width="1920" height="714.955" viewBox="0 0 1920 714.955"><defs><style>.a{fill:none;}.b{clip-path:url(#a);}.c,.g{opacity:0.4;}.d,.e,.f,.h{opacity:0.8;}.d{fill:url(#b);}.e{fill:url(#c);}.f{fill:url(#d);}.g{fill:url(#e);}.h{fill:url(#f);}.i{opacity:0.9;fill:url(#g);}</style><clipPath id="a"><rect class="a" width="1920" height="714.955" transform="translate(0 0)"/></clipPath><linearGradient id="b" x1="4.372" y1="-0.599" x2="4.783" y2="1.361" gradientUnits="objectBoundingBox"><stop offset="0" stop-color="#2daab5" stop-opacity="0.698"/><stop offset="1" stop-color="#306baa" stop-opacity="0"/></linearGradient><linearGradient id="c" x1="4.76" y1="-0.608" x2="5.17" y2="1.352" xlink:href="#b"/><linearGradient id="d" x1="4.178" y1="-0.177" x2="4.823" y2="1.085" gradientUnits="objectBoundingBox"><stop offset="0" stop-color="#3aa2d4"/><stop offset="1" stop-color="#3972b0" stop-opacity="0"/></linearGradient><linearGradient id="e" x1="5.259" y1="-0.137" x2="5.989" y2="1.04" gradientUnits="objectBoundingBox"><stop offset="0" stop-color="#fff" stop-opacity="0.502"/><stop offset="0.463" stop-color="#92b3d9" stop-opacity="0.161"/><stop offset="1" stop-color="#306baa" stop-opacity="0"/></linearGradient><linearGradient id="f" x1="5.18" y1="-0.496" x2="5.628" y2="1.232" gradientUnits="objectBoundingBox"><stop offset="0" stop-color="#3882bd"/><stop offset="1" stop-color="#3972b0" stop-opacity="0"/></linearGradient><linearGradient id="g" x1="8.055" y1="-0.58" x2="8.497" y2="1.151" gradientUnits="objectBoundingBox"><stop offset="0" stop-color="#544c93" stop-opacity="0.698"/><stop offset="1" stop-color="#376aa9" stop-opacity="0"/></linearGradient></defs><g class="b" transform="translate(0 0)"><g class="c" transform="translate(-1408.246 -608.628)"><path class="d" d="M-997.465,1071.008l1953.5-303.514c9.415-1.478,16.211-8.644,16.056-16.934l-3.593-285.216c-.2-10.447-11.156-18.249-23.023-16.387l-1953.5,303.514c-9.415,1.478-16.21,8.644-16.056,16.934l3.593,285.217C-1020.293,1065.069-1009.331,1072.871-997.465,1071.008Z" transform="translate(1408.246 477.806)"/><path class="e" d="M-1381.627,1387.378l1953.5-303.514c9.415-1.477,16.21-8.644,16.056-16.934l-3.593-285.217c-.2-10.446-11.157-18.249-23.023-16.386l-1953.5,303.514c-9.415,1.478-16.211,8.645-16.056,16.934l3.593,285.217C-1404.455,1381.438-1393.493,1389.241-1381.627,1387.378Z" transform="translate(1408.246 433.286)"/><path class="f" d="M.3,1451.463,1584.8,1194.878c9.966-1.564,17.159-9.15,16.995-17.925l-3.8-948.765c-.206-11.058-11.809-19.317-24.37-17.345L-10.88,467.427c-9.966,1.564-17.159,9.15-17,17.925l3.8,948.765C-23.866,1445.176-12.263,1453.434.3,1451.463Z" transform="translate(1408.246 511.316)"/><path class="g" d="M-168.495,648.276,1171.892,434.6c9.415-1.478,16.21-8.645,16.056-16.934L1184.355-612.87c-.195-10.447-11.157-18.25-23.023-16.386L-179.055-415.576c-9.415,1.478-16.211,8.645-16.056,16.934l3.593,1030.531C-191.323,642.336-180.361,650.138-168.495,648.276Z" transform="translate(1408.246 629.532)"/><path class="h" d="M40.563,1712.387l1323.6-197.67c9.415-1.477,16.211-8.644,16.056-16.934l0-296.362c-.195-10.446-11.157-18.248-23.023-16.386L30,1385.613c-9.415,1.477-16.21,8.644-16.056,16.934L17.54,1696C17.735,1706.447,28.7,1714.249,40.563,1712.387Z" transform="translate(1408.246 374.225)"/><path class="i" d="M-278.838,305.116l946.582-149.04c9.415-1.478,16.211-8.645,16.056-16.934L680.207-53.49c-.195-10.447-11.157-18.249-23.023-16.386L-289.4,79.164c-9.415,1.477-16.21,8.644-16.055,16.934l3.592,192.632C-301.666,299.177-290.7,306.979-278.838,305.116Z" transform="translate(1408.246 550.816)"/></g></g></svg>