<svg xmlns="http://www.w3.org/2000/svg" xmlns:xlink="http://www.w3.org/1999/xlink" width="1920" height="445.814" viewBox="0 0 1920 445.814">
  <defs>
    <clipPath id="clip-path">
      <rect id="矩形_609" data-name="矩形 609" width="1920" height="445.035" transform="translate(0 2144.215)" fill="none"/>
    </clipPath>
    <linearGradient id="linear-gradient" x1="0.694" y1="0.119" x2="0.434" y2="0.63" gradientUnits="objectBoundingBox">
      <stop offset="0" stop-color="#1499ff"/>
      <stop offset="0.007" stop-color="#1498fe" stop-opacity="0.965"/>
      <stop offset="0.048" stop-color="#1894fb" stop-opacity="0.784"/>
      <stop offset="0.093" stop-color="#1b91f9" stop-opacity="0.616"/>
      <stop offset="0.142" stop-color="#1e8ef7" stop-opacity="0.467"/>
      <stop offset="0.195" stop-color="#218bf5" stop-opacity="0.341"/>
      <stop offset="0.254" stop-color="#2389f4" stop-opacity="0.231"/>
      <stop offset="0.32" stop-color="#2587f3" stop-opacity="0.145"/>
      <stop offset="0.397" stop-color="#2686f2" stop-opacity="0.078"/>
      <stop offset="0.493" stop-color="#2785f1" stop-opacity="0.035"/>
      <stop offset="0.627" stop-color="#2785f1" stop-opacity="0.008"/>
      <stop offset="1" stop-color="#2885f1" stop-opacity="0"/>
    </linearGradient>
    <linearGradient id="linear-gradient-2" x1="0.693" y1="0.125" x2="0.432" y2="0.632" xlink:href="#linear-gradient"/>
    <linearGradient id="linear-gradient-3" x1="0.692" y1="0.131" x2="0.37" y2="0.75" xlink:href="#linear-gradient"/>
    <linearGradient id="linear-gradient-4" x1="0.691" y1="0.138" x2="0.371" y2="0.744" xlink:href="#linear-gradient"/>
    <linearGradient id="linear-gradient-5" x1="0.689" y1="0.145" x2="0.376" y2="0.733" xlink:href="#linear-gradient"/>
    <linearGradient id="linear-gradient-6" x1="0.688" y1="0.151" x2="0.37" y2="0.741" xlink:href="#linear-gradient"/>
    <linearGradient id="linear-gradient-7" x1="0.687" y1="0.158" x2="0.376" y2="0.727" xlink:href="#linear-gradient"/>
    <linearGradient id="linear-gradient-8" x1="0.693" y1="0.165" x2="0.381" y2="0.719" xlink:href="#linear-gradient"/>
    <linearGradient id="linear-gradient-9" x1="0.722" y1="0.17" x2="0.362" y2="0.763" xlink:href="#linear-gradient"/>
    <linearGradient id="linear-gradient-10" x1="0.763" y1="0.177" x2="0.38" y2="0.747" xlink:href="#linear-gradient"/>
    <linearGradient id="linear-gradient-11" x1="0.767" y1="0.18" x2="0.38" y2="0.749" xlink:href="#linear-gradient"/>
    <linearGradient id="linear-gradient-12" x1="0.765" y1="0.18" x2="0.403" y2="0.709" xlink:href="#linear-gradient"/>
    <linearGradient id="linear-gradient-13" x1="0.753" y1="0.181" x2="0.399" y2="0.704" xlink:href="#linear-gradient"/>
    <linearGradient id="linear-gradient-14" x1="0.734" y1="0.185" x2="0.393" y2="0.696" xlink:href="#linear-gradient"/>
    <linearGradient id="linear-gradient-15" x1="0.715" y1="0.192" x2="0.388" y2="0.69" xlink:href="#linear-gradient"/>
    <linearGradient id="linear-gradient-16" x1="0.701" y1="0.193" x2="0.382" y2="0.683" xlink:href="#linear-gradient"/>
    <linearGradient id="linear-gradient-17" x1="0.689" y1="0.216" x2="0.376" y2="0.687" xlink:href="#linear-gradient"/>
    <linearGradient id="linear-gradient-18" x1="0.679" y1="0.238" x2="0.369" y2="0.692" xlink:href="#linear-gradient"/>
    <linearGradient id="linear-gradient-19" x1="0.67" y1="0.256" x2="0.364" y2="0.695" xlink:href="#linear-gradient"/>
    <linearGradient id="linear-gradient-20" x1="0.648" y1="0.278" x2="0.375" y2="0.688" xlink:href="#linear-gradient"/>
    <linearGradient id="linear-gradient-21" x1="0.655" y1="0.281" x2="0.359" y2="0.699" xlink:href="#linear-gradient"/>
    <linearGradient id="linear-gradient-22" x1="0.655" y1="0.284" x2="0.356" y2="0.701" xlink:href="#linear-gradient"/>
    <linearGradient id="linear-gradient-23" x1="0.671" y1="0.276" x2="0.338" y2="0.712" xlink:href="#linear-gradient"/>
    <linearGradient id="linear-gradient-24" x1="0.683" y1="0.272" x2="0.325" y2="0.719" xlink:href="#linear-gradient"/>
    <linearGradient id="linear-gradient-25" x1="0.669" y1="0.278" x2="0.339" y2="0.711" xlink:href="#linear-gradient"/>
    <linearGradient id="linear-gradient-26" x1="0.701" y1="0.261" x2="0.309" y2="0.727" xlink:href="#linear-gradient"/>
    <linearGradient id="linear-gradient-27" x1="0.73" y1="0.248" x2="0.282" y2="0.738" xlink:href="#linear-gradient"/>
    <linearGradient id="linear-gradient-28" x1="0.764" y1="0.239" x2="0.247" y2="0.751" xlink:href="#linear-gradient"/>
    <linearGradient id="linear-gradient-29" x1="0.787" y1="0.238" x2="0.215" y2="0.761" xlink:href="#linear-gradient"/>
    <linearGradient id="linear-gradient-30" x1="0.832" y1="0.228" x2="0.168" y2="0.772" xlink:href="#linear-gradient"/>
    <linearGradient id="linear-gradient-31" x1="0.695" y1="0.116" x2="0.435" y2="0.628" xlink:href="#linear-gradient"/>
    <linearGradient id="linear-gradient-32" x1="0.694" y1="0.122" x2="0.433" y2="0.631" xlink:href="#linear-gradient"/>
    <linearGradient id="linear-gradient-33" x1="0.692" y1="0.128" x2="0.368" y2="0.755" xlink:href="#linear-gradient"/>
    <linearGradient id="linear-gradient-34" x1="0.691" y1="0.135" x2="0.371" y2="0.747" xlink:href="#linear-gradient"/>
    <linearGradient id="linear-gradient-35" x1="0.69" y1="0.141" x2="0.374" y2="0.738" xlink:href="#linear-gradient"/>
    <linearGradient id="linear-gradient-36" x1="0.689" y1="0.148" x2="0.368" y2="0.747" xlink:href="#linear-gradient"/>
    <linearGradient id="linear-gradient-37" x1="0.687" y1="0.155" x2="0.372" y2="0.736" xlink:href="#linear-gradient"/>
    <linearGradient id="linear-gradient-38" x1="0.686" y1="0.162" x2="0.378" y2="0.722" xlink:href="#linear-gradient"/>
    <linearGradient id="linear-gradient-39" x1="0.707" y1="0.167" x2="0.356" y2="0.769" xlink:href="#linear-gradient"/>
    <linearGradient id="linear-gradient-40" x1="0.734" y1="0.172" x2="0.365" y2="0.762" xlink:href="#linear-gradient"/>
    <linearGradient id="linear-gradient-41" x1="0.756" y1="0.176" x2="0.373" y2="0.756" xlink:href="#linear-gradient"/>
    <linearGradient id="linear-gradient-42" x1="0.769" y1="0.178" x2="0.384" y2="0.741" xlink:href="#linear-gradient"/>
    <linearGradient id="linear-gradient-43" x1="0.767" y1="0.18" x2="0.387" y2="0.737" xlink:href="#linear-gradient"/>
    <linearGradient id="linear-gradient-44" x1="0.76" y1="0.18" x2="0.401" y2="0.707" xlink:href="#linear-gradient"/>
    <linearGradient id="linear-gradient-45" x1="0.744" y1="0.182" x2="0.396" y2="0.7" xlink:href="#linear-gradient"/>
    <linearGradient id="linear-gradient-46" x1="0.766" y1="0.232" x2="0.35" y2="0.737" xlink:href="#linear-gradient"/>
    <linearGradient id="linear-gradient-47" x1="0.708" y1="0.193" x2="0.385" y2="0.686" xlink:href="#linear-gradient"/>
    <linearGradient id="linear-gradient-48" x1="0.668" y1="0.28" x2="0.338" y2="0.711" xlink:href="#linear-gradient"/>
    <linearGradient id="linear-gradient-49" x1="0.857" y1="0.156" x2="0.236" y2="0.755" xlink:href="#linear-gradient"/>
  </defs>
  <g id="组_591" data-name="组 591" transform="translate(0 -2143.436)">
    <rect id="矩形_608" data-name="矩形 608" width="1920" height="445.814" transform="translate(0 2143.436)" fill="#223c66"/>
    <g id="组_590" data-name="组 590" opacity="0.41">
      <g id="组_589" data-name="组 589" clip-path="url(#clip-path)">
        <g id="组_588" data-name="组 588">
          <path id="路径_889" data-name="路径 889" d="M1179.709,1885.947q157.952,44.361,315.9,88.722c57.061,16.024,113.9,32.8,171.254,47.83a182.037,182.037,0,0,0,25.078,5.137c13.371,1.562,26.494.692,39.775-.278,32.832-2.4,52.083-.907,82.967,11.689,24.578,10.024,47.574,23.04,71.459,34.361a680.482,680.482,0,0,0,74.839,30.05c53.161,17.876,107.333,32.052,161.265,47.2q157.879,44.358,315.767,88.687,625.465,175.666,1251.089,350.786c4.266,1.2,8.532,1520.427,12.8,1521.624" opacity="0.2" fill="url(#linear-gradient)"/>
          <path id="路径_890" data-name="路径 890" d="M1136.9,1890.882q157.992,45.506,315.987,91.012c55.947,16.111,111.471,33.58,167.965,47.909,8.144,2.066,16.186,3.726,24.692,3.794,14.248.113,27.117-3.891,40.4-7.7,33.434-9.6,53.17-9.05,84.579,7.1,24.489,12.595,46.477,28.894,70.02,42.864a472.605,472.605,0,0,0,73.242,35.281c51.628,19.683,104.835,33.58,157.759,48.823q157.919,45.483,315.819,91.029,627.016,181.125,1254.468,360.772c3.251.936,6.5,1519.9,9.753,1520.839" opacity="0.2" fill="url(#linear-gradient-2)"/>
          <path id="路径_891" data-name="路径 891" d="M3601.1,4153.523c-2.971-.877-5.943-1519.786-8.914-1520.663q-310.321-91.614-620.716-182.99c-209.794-61.849-420.1-121.974-629.127-186.385q-156.65-48.272-314.142-93.739c-53.15-15.311-106.443-29.61-158.062-50.037a593.741,593.741,0,0,1-73.355-35.136c-23.413-13.2-45.755-28.125-70.106-39.84-31.62-15.211-52-17.068-86.109-9.382-13.561,3.056-26.782,6.4-41.032,5.932-8.4-.275-16.379-1.945-24.43-4.047-55.791-14.567-110.606-32.223-165.849-48.538q-157.328-46.464-314.651-92.941v1156.48" opacity="0.2" fill="url(#linear-gradient-3)"/>
          <path id="路径_892" data-name="路径 892" d="M3546.261,4176.241c-3.19-.968-6.38-1519.967-9.57-1520.934Q3227.883,2561.622,2919,2468.182q-156.773-47.493-313.542-95c-80.37-24.361-161.085-47.555-240.865-73.858-23.945-7.894-47.611-16.485-71.153-25.474-53.832-20.555-107.4-41.632-162.424-59.1-49.094-15.589-98.645-29.327-148.589-41.944-53.475-13.51-107.136-25.043-158.622-46.2-25.461-10.461-49.639-23.048-73.511-36.566-23.156-13.113-45.668-27.183-70.23-37.928-32.241-14.1-53.691-15.765-87.972-8.53-13.828,2.919-27.328,6.186-41.8,5.655a108.976,108.976,0,0,1-24.2-4.043c-54.981-14.614-108.872-32.571-163.242-49.072q-156.736-47.568-313.469-95.149V3059.28" opacity="0.2" fill="url(#linear-gradient-4)"/>
          <path id="路径_893" data-name="路径 893" d="M3489.65,4199.695c-2.856-.891-5.713-1519.813-8.569-1520.7q-309.108-96.441-618.3-192.625-156.672-48.813-313.333-97.66c-60.44-18.86-120.963-37.451-181.181-57.008-19.325-6.276-38.595-12.622-57.491-20.135-23.975-9.532-46.6-21.2-68.8-34.164-51.282-29.962-100.321-62.825-156.779-84.317-47.122-17.937-94.9-29.537-144.78-36.6-53.9-7.631-108.256-7.26-161.246-25.5s-95.248-53.72-145.476-76.062c-30.758-13.681-57.978-15.7-90.476-6.874-14.1,3.829-27.742,8.355-42.8,8.53a90.028,90.028,0,0,1-24.015-3.326c-11.1-2.89-22.008-6.377-32.958-9.749-42.275-13.023-84.477-26.274-126.7-39.452q-156.637-48.885-313.269-97.789V3046.677" opacity="0.2" fill="url(#linear-gradient-5)"/>
          <path id="路径_894" data-name="路径 894" d="M3434.181,4222.676c-2.78-.891-5.56-1519.814-8.34-1520.7q-312.146-100.086-624.375-199.909-158.027-50.6-316.025-101.289c-58.578-18.828-117.357-37-175.379-57.538-19.119-6.767-37.969-13.771-55.94-23.378-26.051-13.928-47.343-32.3-68.053-52.67-45.439-44.694-83.778-94.67-142.749-126.616-43.133-23.366-85.34-33.179-134.351-32.485-29.21.414-57.2,5.848-85.476,11.82-26.636,5.626-52.574,11.2-80.438,9.152-60.6-4.462-100.027-42.02-148.551-66.5-32.076-16.178-60.067-22.28-95.905-11.516-14.9,4.474-29.075,10.67-45.035,12.106a73.823,73.823,0,0,1-24.129-1.95c-10.207-2.425-20.127-5.7-30.11-8.829-41.375-12.972-82.619-26.34-123.906-39.579q-158.1-50.7-316.181-101.431V3094.985" opacity="0.2" fill="url(#linear-gradient-6)"/>
          <path id="路径_895" data-name="路径 895" d="M3374.626,4247.35c-2.81-.928-5.621-1519.887-8.431-1520.815q-322.7-106.54-645.5-212.806-163.478-53.911-326.877-108.056c-52.45-17.481-105.354-33.292-156.333-55.182-18.624-8-35.746-17.2-51.182-30.642-30.845-26.857-49.8-59.945-69.632-94.019-32.942-56.6-68.227-132.09-121.85-177.09-33.405-28.033-73.287-41.845-117.577-35.344-69.288,10.171-108.831,60.317-163.723,89.635-57.868,30.906-97.023,7.924-145.589-18.99-33.036-18.307-67.833-37.292-109.68-29.356-17.435,3.307-33.459,10.836-50.827,14.318a69.81,69.81,0,0,1-25.57.763c-8.663-1.416-16.88-4.119-25.186-6.71-39.268-12.245-78.2-25.459-117.254-38.344q-163.455-53.938-326.88-107.967V3075.182" opacity="0.2" fill="url(#linear-gradient-7)"/>
          <path id="路径_896" data-name="路径 896" d="M3314.674,4272.187c-4.551-1.547-9.1-1521.126-13.654-1522.673q-339.734-115.5-679.563-230.714c-115.521-39.246-231.267-77.826-346.275-118.558-25.733-9.114-51.442-18.192-76.594-28.861-13.48-5.717-26.594-11.818-38.945-19.8-18.92-12.221-32.61-27.521-44.742-46.006-29.711-45.274-52.153-108.932-70.721-158.468-16.747-44.679-33.057-89.43-53.242-132.822-14.574-31.327-29.976-61.1-53.315-87.548-26.971-30.567-61.538-49.778-104.554-37.831-31.75,8.818-52.533,27.524-73.807,50.219-25.9,27.626-46.927,58.579-69.309,88.716-19.2,25.853-37.1,51.337-65.006,70.1-20.1,13.517-38.189,17.6-62.187,12.506-25.118-5.33-46.465-17.8-69.2-27.978-21.189-9.485-41.921-17.455-65.675-19.333-21.756-1.72-41.248,3.646-61.519,9.246-9.762,2.7-19.322,5.09-29.659,5.029-7.122-.042-13.784-1.534-20.547-3.413-35.031-9.733-68.962-22.455-103.3-34.1q-173.312-58.772-346.523-117.831V3062.329" opacity="0.2" fill="url(#linear-gradient-8)"/>
          <path id="路径_897" data-name="路径 897" d="M3250.242,4298.881c-2.623-.92-5.247-1519.872-7.87-1520.792Q2874.188,2648.918,2505.9,2520.04c-89.043-31.244-178.183-62.206-266.877-94.424-34.846-12.658-69.76-24.87-103.413-40.669-58.752-27.585-76.891-61.455-98.675-117.7-28.149-72.675-46.043-147.855-66.675-222.51-14.84-53.7-29.854-107.19-49.509-159.495-13.115-34.9-26.879-68.385-49.908-98.785-24.1-31.815-56.678-53.14-97.89-33.393-25.3,12.123-41.14,30.794-56.946,52.263-21.459,29.147-37.89,60.595-53.849,92.718-17.172,34.566-33.02,69.75-50.618,104.122-13.828,27.009-27.648,53.308-48.165,76.508-24.4,27.584-47.07,36.719-83.9,27.438-27.546-6.944-53.161-19.069-80.538-26.427-24.956-6.708-48.468-10.137-74.558-5.083-11.837,2.294-23.225,6.235-35.089,8.438a56.464,56.464,0,0,1-19.063.658,134.081,134.081,0,0,1-19.735-5.015c-20.482-6.334-40.652-13.527-60.888-20.553-124.148-43.109-248.045-86.914-372.042-130.443V3184.58" opacity="0.2" fill="url(#linear-gradient-9)"/>
          <path id="路径_898" data-name="路径 898" d="M3120.677,4352.56c-3.609-1.349-7.219-1520.729-10.829-1522.077q-403.395-150.714-806.879-301.19c-73.077-27.39-146.323-54.3-218.7-83.517-29.05-11.729-57.978-23.023-84.884-39.627-33.624-20.75-50.733-48.121-64.854-83.017-24.067-59.48-36.71-121.063-50.139-183.053-17.111-78.993-32.115-158.4-48.861-237.462-13.831-65.3-28.2-130.27-48.158-194.161-12.215-39.1-24.768-76.873-48.242-111.688-22.466-33.319-53.943-55.181-92.731-28.808-21.212,14.422-34.006,33.418-46.459,54.577-18.1,30.755-31.24,63.167-43.459,96.393-29.4,79.947-50.381,162.379-78.152,242.784-11.616,33.628-23.348,66.565-42.585,97.206-11.189,17.822-22.3,32.5-43.291,40.964-25.464,10.269-63.513,1.951-87.271-2.789-14.746-2.943-64.771-16.349-80.261-16.876-13.505-.46-24.919,3.209-36.805,8.732-5.91,2.746-11.6,5.838-17.989,7.6-14.839,4.1-26.085-1.913-38.857-6.143-33.59-11.125-66.563-23.833-99.7-36.149q-154.8-57.532-309.4-115.575V3118.226" opacity="0.2" fill="url(#linear-gradient-10)"/>
          <path id="路径_899" data-name="路径 899" d="M3050.219,4335.546c-2.771-1.071-5.541-1473.969-8.311-1475.04q-407.841-157.672-815.777-315.108c-72.275-28.049-144.771-55.484-216.163-85.763-28.248-11.98-56.262-23.5-81.822-41.189-35.519-24.583-50.187-56.632-63.653-94.525-21.941-61.744-34.673-125.141-47.837-188.841-16.374-79.223-31.024-158.776-47.3-238.017-13.669-66.54-27.9-132.77-47.435-198.005-12.03-40.174-24.589-79.137-47.143-115.5-19.089-30.781-48.4-60.723-89.438-43.243-22.1,9.411-34.961,24.959-47.751,43.6-19.508,28.435-32.248,59.111-44.074,90.953-31.649,85.214-51.326,173.509-77.427,260.136-11.073,36.75-22.292,72.981-40.239,107.418-10.5,20.142-20.976,37.722-41.938,50.032-24.954,14.656-61.428,10.684-86.74,7.263a309,309,0,0,1-40.906-8.39c-12.754-3.519-25.1-8.055-38.557-9.264-13.772-1.237-24.513,2.426-35.967,9.329-18.47,11.131-24.164,17.2-47.375,10.455-30.137-8.759-58.894-20.833-88.073-31.991C887.964,2028.437,779.9,1986.347,671.746,1944.5V3110.85" opacity="0.2" fill="url(#linear-gradient-11)"/>
          <path id="路径_900" data-name="路径 900" d="M2977.185,4365.8c-3.3-1.322-6.6-1474.472-9.905-1475.794q-397.773-159.313-795.654-318.361c-71.158-28.587-142.457-56.8-212.953-86.993-29.684-12.715-59.28-25.09-86.978-42.1-32.783-20.133-51.664-45.819-66.231-80.243-23.231-54.9-37.437-121.332-50.006-178.771-17.393-79.49-32.523-159.424-49.219-239.048-13.3-63.425-27.1-126.6-45.273-188.934-11.7-40.16-24.191-79.316-44.748-116.408-17.741-32.013-41.4-63.168-84.164-64.64-21.523-.741-37.31,5.431-53.639,18.848-24.3,19.97-36.568,44.859-48.687,72.114-34.776,78.214-59.054,191.621-82.64,272.511-10.316,35.381-20.8,70.241-37.86,103.41-10.137,19.709-20.551,36.778-40.627,49.092-23.92,14.672-60.075,13.789-85.331,11.311a214.013,214.013,0,0,1-40.011-7.9c-12.387-3.661-24.216-8.6-37.5-9.554-14.165-1.016-23.974,4-34.6,12.114-17.8,13.591-22.785,20.519-47.184,13.2-30.44-9.125-59.39-21.705-88.79-33.346-105.046-41.594-209.807-83.877-314.673-125.909V2996.965" opacity="0.2" fill="url(#linear-gradient-12)"/>
          <path id="路径_901" data-name="路径 901" d="M2902.413,4396.782c-2.819-1.171-5.639-1474.169-8.459-1475.34q-379.707-157.686-759.549-315.051c-64.908-27-129.843-53.927-194.49-81.538-32.837-14.025-65.658-28.011-97.765-43.669-29.7-14.484-57.458-28.46-79.218-55.323-15.118-18.664-24.387-39.307-32.77-61.255-11.335-29.683-19.83-60.043-27.821-90.686-20.836-79.91-37.125-160.757-55.1-241.268-13.078-58.565-26.492-116.961-43.443-174.621-11.452-38.954-23.673-77.06-42.876-113.35-18.746-35.428-39.466-59.894-80.169-72.608-45.741-14.289-85.5-19.572-116.457,26.732-22.428,33.553-36.311,79.412-47.481,116.83-14.835,49.691-27.164,100.054-42.51,149.612-9.583,30.944-19.383,61.216-36.036,89.627-10.114,17.256-20.922,31.345-39.609,41-22.811,11.782-59.067,12.423-82.961,9.965a187.126,187.126,0,0,1-38.565-8.5c-11.8-3.809-22.894-8.74-35.995-8.52-14.561.245-23.172,7.44-32.851,16.329-5.139,4.719-9.742,9.887-15.946,13.523a19.835,19.835,0,0,1-11.084,2.828c-10.011-.251-18.62-3.886-27.656-7.1-33.047-11.758-65.184-25.606-97.556-38.954q-143.61-59.219-286.934-119.1V3005.425" opacity="0.2" fill="url(#linear-gradient-13)"/>
          <path id="路径_902" data-name="路径 902" d="M2822.79,4429.77c-3-1.3-6-1474.418-9.005-1475.713q-356.2-153.738-712.569-307.118c-84.594-36.522-169.3-72.776-253.428-110.36-35.352-15.793-70.765-31.2-104.564-50.307-56.093-31.712-73.37-63.753-93.78-121.2-26.041-73.287-42.436-148.695-61.119-223.75-13.821-55.528-27.653-110.972-45.063-165.584-11.747-36.848-23.857-72.773-44.426-106.331-22.755-37.125-41.328-45.624-82.05-56.028-24.307-6.211-45.338-17.5-66.522-29.983-16.749-9.871-38.368-22.854-58.9-8.606-12.722,8.827-19.28,20.635-26,33.57-9.882,19.021-17.007,38.883-23.788,59.061-15.642,46.544-27.758,94.126-44.515,140.358-9.025,24.9-18.334,48.833-34.743,70.5-10.431,13.771-21.833,23.607-38.507,29.7-21.815,7.978-57.03,8.559-79.3,5.368-12.684-1.817-24.67-5.475-36.689-9.6-11.175-3.838-21.468-8.33-34.159-6.658-14.244,1.875-21.886,10.446-30.9,19.447-4.777,4.771-8.879,9.873-15.551,12.7-4.51,1.908-8.617,1.649-13.209.825-13.293-2.385-25.212-7.791-37.5-12.706-35.082-14.036-69.674-29.17-104.368-44.088q-128.391-55.2-256.624-110.757V3029.16" opacity="0.2" fill="url(#linear-gradient-14)"/>
          <path id="路径_903" data-name="路径 903" d="M2743.244,4462.726c-2.995-1.344-5.99-1474.514-8.985-1475.858q-335.481-150.478-671.133-300.579c-113.362-50.825-227.405-100.09-339.269-154.221-57.345-27.749-102.073-47.47-132.608-110.313-26.443-54.42-45.028-125.892-61.5-183.152-15.722-54.661-30.83-109.381-51-162.759-11.341-30.01-25.592-67.165-49.96-91.172-31.488-31.022-56.516-11.3-89.977-18.977-28.477-6.536-48.947-32.831-65.15-52.294-10.276-12.342-34.79-47.742-57.8-45.136-11.494,1.3-19.66,11.08-25.323,19.252-10.155,14.654-16.688,30.59-23.135,46.9-15.3,38.7-26.845,78.691-43.983,116.794-14.319,31.834-30.988,64.08-71.072,73.074-21.127,4.74-54.609,4.051-75.622,0-12.118-2.336-23.577-6.391-35.131-10.431-10.735-3.755-20.51-7.679-32.674-5.2-13.374,2.724-20.662,11.41-29.375,19.917-4.609,4.5-8.483,9.167-15.422,10.9-5.482,1.372-10.192.146-15.293-1.26-15.887-4.377-30.593-11.248-45.584-17.684C689.1,2071.517,576.4,2019.408,463.113,1968.552v1041.16" opacity="0.2" fill="url(#linear-gradient-15)"/>
          <path id="路径_904" data-name="路径 904" d="M2659.511,4497.416c-3.194-1.492-6.387-1474.811-9.581-1476.3q-318.2-148.644-636.59-296.9c-107.641-50.238-215.507-100-322.538-151.517-40.649-19.566-81.714-37.572-119.154-63.573-18.259-12.681-32.958-27.254-45.111-45.864-26.262-40.218-44.846-98.384-60-142.524-17.776-51.773-33.805-103.911-57.8-153.6-7.907-16.381-16.19-32.03-28.445-45.947-7.747-8.8-15.362-15.634-27.476-18.549-31.713-7.632-63.816,33.3-98.118,13.736-26.86-15.318-47.518-57.26-60.879-80.74-8.885-15.612-17.551-31.263-28.247-45.839-7.21-9.824-13.262-19.154-26.154-23.544-22.192-7.558-38.844,26.3-45.709,39.751-14.72,28.839-25.688,59.315-41.975,87.512-16.477,28.526-32.428,47.772-68.872,51.04-24.921,2.236-48.574.121-72.839-5.526-14.136-3.289-49.429-19.077-66.2-15.688-12.43,2.512-19.832,10.409-28.5,17.913-4.626,4.007-8.611,7.936-15.414,8.668-6.111.657-11.268-1.2-16.759-3.054-17.562-5.94-34.119-13.927-50.905-21.548C624.037,2076.2,516.779,2025.1,409.142,1974.773V2999.708" opacity="0.2" fill="url(#linear-gradient-16)"/>
          <path id="路径_905" data-name="路径 905" d="M2573.621,4533c-1.634-.8-3.269-1473.42-4.9-1474.216Q2262.1,2909.437,1955.28,2760.507c-103.088-50.149-206.269-100.106-309.048-150.876-46.259-22.85-92.942-44.6-137.115-71.579-18.63-11.378-35.61-23.651-49.988-40.416-27.907-32.54-42.055-70.1-58.007-108.126-19.174-45.7-35.311-92.3-61.828-135.1-11.666-18.831-30.279-46.983-59.136-39.56-22.257,5.727-35.361,22.59-53.382,33.363-18.855,11.272-32.459,11.364-49.124-3.9-25.013-22.908-44.591-70.209-58.076-98.535-8.56-17.981-17.028-35.955-27.141-53.191-6.978-11.9-13.583-23.258-25.158-31.977-18.731-14.11-33.209.741-44.072,15.259-14.612,19.528-25.173,41.5-40.36,60.711-18.165,22.97-36.491,32.7-66.542,31a361.921,361.921,0,0,1-70.962-11.333c-14.874-3.86-48.525-9.847-65.909-7.295-11.466,1.683-19.322-.564-28.119,5.488-4.777,3.287-9.063,6.189-15.424,6.075-6.427-.115-11.9-2.393-17.639-4.617-18.529-7.184-36.217-16.021-54.087-24.556-103.415-49.387-206.153-100.121-309.155-150.331V3025" opacity="0.2" fill="url(#linear-gradient-17)"/>
          <path id="路径_906" data-name="路径 906" d="M2481.894,4571c-1.976-1.006-3.951-1473.839-5.927-1474.846q-293.093-149.3-586.406-298.163-147.912-75.228-295.7-150.686c-50.047-25.652-100.357-50.733-149.233-78.619-19.469-11.108-38.43-22.412-55.39-37.367-25.051-22.089-40.416-48.879-55.655-77.3-20.742-38.7-37.335-79.2-64.191-114.989-14.258-19-33.571-39.28-60.965-26.858-21.958,9.957-35.22,29.213-54.7,41.615-20.8,13.246-34.709,9.384-50.779-7.94-24.24-26.131-43.691-74.705-57.628-105.4-8.569-18.871-17.1-37.724-27.025-55.973-7.089-13.03-14.2-25.565-25.006-36.283-15.005-14.886-27.378-14.833-43.633-1.795-14.225,11.408-24.873,26.232-39.726,37.094-21.139,15.457-40.023,13.658-63.346,8.276-23.117-5.333-46.143-10.965-69.021-17.239-16.173-4.436-47.454-11.495-65.735-9.984-10.3.852-18.681.171-27.624,4.21-5.019,2.267-9.648,3.765-15.386,2.872-6.588-1.025-12.374-3.685-18.33-6.288-18.987-8.3-37.337-17.808-55.817-27.1C495.7,2088.487,397.2,2037.834,298.52,1987.525V3040.878" opacity="0.2" fill="url(#linear-gradient-18)"/>
          <path id="路径_907" data-name="路径 907" d="M2387.068,4581.212c-2.123-1.133-4.247-1445.017-6.37-1446.15q-280.429-149.64-561.094-298.846-141.8-75.534-283.525-151.191c-50.737-27.133-101.57-54.078-151.794-82.148-20.967-11.718-41.86-23.42-61.668-37.087a225.79,225.79,0,0,1-54.318-53.021c-23.438-31.763-41.335-66.972-66.76-97.578-15.078-18.151-35.282-38.326-63.075-28.12-33.806,12.414-67.315,72.691-109.454,26.166-24.415-26.955-45.14-75.781-60.125-107.086-13.269-27.718-29.821-66.9-53.61-89.455-30.439-28.858-57.995,5.257-84.462,8.613-22.61,2.867-39.746-6.776-58.906-14.165-21.71-8.373-43.947-14.6-66.429-20.4-21.045-5.431-41.06-11.258-63.8-10.449a170.075,170.075,0,0,0-26.227,2.821,30.846,30.846,0,0,1-15.285-.662c-6.732-2.03-12.908-5.11-19.164-8.153-18.9-9.191-37.378-19.13-55.935-28.947C430.374,2095.252,336,2044.564,241.512,1994.1V3048.958" opacity="0.2" fill="url(#linear-gradient-19)"/>
          <path id="路径_908" data-name="路径 908" d="M2290.98,4432.371c-2.309-1.292-4.619-1256.685-6.929-1257.978q-269.108-150.565-538.467-300.691-136.284-76.11-272.532-152.285c-70.219-39.293-141.073-77.414-209.843-119.27-20.159-12.27-39.7-24.872-57.177-40.978-26.919-24.8-46.685-55.059-70.88-81.881-15.747-17.457-36.962-39.317-65.42-36.044-40.114,4.614-69.986,54.748-114.212,8.168-24.913-26.24-47.6-73.534-64.06-104.118-13.983-25.987-31.226-61.227-55.588-81.3-13.8-11.372-27.214-12.911-44.109-11.278-14.525,1.4-27.854,1.023-41.815-4.43-19.2-7.5-36.144-19.011-54.86-27.318-20.713-9.194-42.087-14.507-64.159-18.83-19.9-3.9-39.6-7.906-60.087-8.405-8.058-.2-16.084.6-24.151.251a43.8,43.8,0,0,1-15.194-3.6c-26.009-10.8-49.454-25.771-73.828-39.32q-136.478-75.864-272.533-152.46V3174.383" opacity="0.2" fill="url(#linear-gradient-20)"/>
          <path id="路径_909" data-name="路径 909" d="M2188.572,4537.63c-3.055-1.8-6.11-1320.529-9.165-1322.328Q1921,3063.181,1662.321,2911.5q-131.505-77.265-262.991-154.565c-66.214-38.943-132.583-77.626-198.363-117.294-21.366-12.884-42.736-25.68-63.117-40.124-28.4-20.126-51.471-45.243-76.1-69.1-17.678-17.123-38.971-36.682-65.858-41.1-46.113-7.584-70.841,26.855-116.238-15.8-25.349-23.817-48.992-65.177-66.677-93.662-16.586-26.714-31.407-53.554-56.374-74.8-12.825-10.914-27.25-15.474-42.857-19.735-15.738-4.3-29.037-11.809-42.207-20.907-44.4-30.667-60.918-41.736-116.285-48.324-19.062-2.268-38.176-4.024-57.267-6-7.523-.78-15.051-1.339-22.505-2.787a62.289,62.289,0,0,1-15-5.19c-24.654-11.731-47.508-26.317-70.958-40.013q-131.75-76.952-262.992-154.745V3155.534" opacity="0.2" fill="url(#linear-gradient-21)"/>
          <path id="路径_910" data-name="路径 910" d="M2080.5,4519.572c-4.332-2.693-8.664-1259.486-13-1262.178q-248.52-154.436-497.321-308.427c-45.734-28.365-464.567-287.7-509.474-317.4-28.206-18.655-54-40.013-79.743-61.685-19.766-16.643-39.1-32.411-63.882-42.257-46.667-18.544-70.832-3.01-114.3-38.675-28.064-23.029-47.226-51.79-67.721-80.461-17.707-24.772-34.434-49.9-56.588-71.494-12.3-11.986-26.527-20.439-41.2-28.864-15.3-8.783-28.284-19.991-41.337-31.492-38.92-34.291-62.286-48.123-115.791-51.925-18.708-1.329-37.431-2.01-56.05-4.766-7.169-1.06-14.33-2.126-21.438-3.561a62.248,62.248,0,0,1-14.4-4.89c-23.512-11.111-44.845-25.494-66.851-38.959C236.048,2120.3,151.259,2067.157,66.291,2014.3V3170.906" opacity="0.2" fill="url(#linear-gradient-22)"/>
          <path id="路径_911" data-name="路径 911" d="M1972.322,4622.91c-3.777-2.48-7.555-1317.58-11.332-1320.06q-242.562-159.231-485.433-318c-165.587-108.476-332.1-215.545-496.483-325.842-27.553-18.488-54.195-38.11-80.459-58.324-19.5-15.01-39.042-29.653-60.714-41.7-35.932-19.974-76.25-29.875-109.968-55.493-51.362-39.023-82.147-93.225-124.361-138.854-12.388-13.39-26.248-24.858-40.561-36.058-14.523-11.366-27.177-24.4-39.8-37.657-35.159-36.936-60.614-58.449-115.171-63.026-18.584-1.56-37.227-2.182-55.764-4.547a184.939,184.939,0,0,0-20.662-1.626,38.608,38.608,0,0,1-13.334-2.359,127.07,127.07,0,0,1-17.493-8.662c-15.22-8.574-29.918-17.938-44.643-27.288C172.577,2130.345,90.266,2075.42,7.564,2021.064V3188.293" opacity="0.2" fill="url(#linear-gradient-23)"/>
          <path id="路径_912" data-name="路径 912" d="M1850.513,4674.205V3360.755c-321.688-224.856-644.654-447.915-965.7-673.675-46.169-32.465-90.235-67.7-137.35-98.947-34.7-23.009-71.847-41.994-105.065-67.507-48-36.867-83.309-83.835-122.789-127.865-13-14.5-26.987-27.924-41.315-41.1-14.282-13.129-26.932-27.507-39.141-42.464-31.259-38.293-57.73-73.226-112.512-84.1a359.354,359.354,0,0,0-54.324-6.679c-6.913-.305-13.064.429-19.385,3.61-3.733,1.877-7.107,3.692-11.654,3.268-5.714-.534-10.429-2.9-15.359-5.326C211.77,2213,198.747,2204.4,185.6,2195.861c-82.409-53.56-161.911-111.1-242.349-167.384V3195.248" opacity="0.2" fill="url(#linear-gradient-24)"/>
          <path id="路径_913" data-name="路径 913" d="M1602.314,4402.938V3463.583q-461.361-367.556-923.595-734.036c-42.793-34.086-85.348-68.462-128.223-102.448-34.109-27.039-68.552-53.623-101.391-82.23-40.048-34.887-75.713-73.828-112.908-111.406-14.353-14.5-29.428-28.27-43.395-43.166-17.176-18.319-31.21-38.5-44.614-59.489-25.722-40.283-56.479-97.921-98.427-128-8.12-5.821-29.089-19.876-41.582-14.92-8.581,3.4-11.207,13.905-13.245,20.926-1.92,6.61-2.675,13.364-6.94,19.375-2.572,3.625-5.356,4.863-9.779,4.7-10.617-.4-17.979-5.826-26.289-10.754-26.194-15.531-49.825-34.187-73.819-52.59-54.041-41.45-107.045-84.159-160.268-126.612v1192.3" opacity="0.2" fill="url(#linear-gradient-25)"/>
          <path id="路径_914" data-name="路径 914" d="M1464.736,4549V3520.582q-451.279-387.468-903.543-773.811c-75.23-64.568-151.636-127.744-224.625-194.9-35.906-33.036-69.9-67.947-104.833-101.933-15.258-14.843-30.578-29.511-44.169-45.985-18.634-22.586-33.215-47.23-47.205-72.642-23.681-43.017-52.169-106.3-87.169-143.69-5.568-5.947-23.562-25.066-33.614-16.228-7.721,6.787-8.358,20.817-9.477,29.121-2.357,17.49-.9,46.358-26.839,35.822-8.642-3.51-16.207-8.486-23.818-13.649-14.408-9.776-28.044-20.474-41.608-31.324-56.8-45.439-111.356-93.4-166.457-140.767V3281.315" opacity="0.2" fill="url(#linear-gradient-26)"/>
          <path id="路径_915" data-name="路径 915" d="M1321.548,4653.338V3579.9Q883.434,3172.4,444.226,2766.049c-72.955-67.848-146.409-135.159-218.182-204.255q-49.11-47.277-97.241-95.518c-42.014-42.283-65.647-80.03-91.279-132.991-22.182-45.832-47.161-110.417-77.406-152.86-4.6-6.451-9.122-12.646-15.659-17.536-4.343-3.248-8.05-5.906-12.491-.767-6.743,7.8-6.416,22.052-7.039,30.66-.709,9.8-.909,19.627-1.749,29.423-.514,6-1.5,21.262-9.714,24.23-6.561,2.37-10.964-.511-16.26-3.109-13.017-6.387-23.878-15.24-34.979-24.144-23.1-18.522-44.978-38.324-66.851-58.194-37.311-33.892-74.109-68.321-110.985-102.67V3305.306" opacity="0.2" fill="url(#linear-gradient-27)"/>
          <path id="路径_916" data-name="路径 916" d="M1172.423,4783.755V3641.686q-419.407-425.168-840.034-849.155-104.771-106.188-209.238-212.668c-30.726-31.433-61.771-62.551-91.674-94.775-40.9-44.074-64.445-85.383-88.7-139.434-21.63-48.2-44.222-111.839-71.613-157.829-4.162-6.989-8.312-13.787-14.2-19.644-2.555-2.542-7.5-6.871-11.267-3.363-6.553,6.1-5.7,19.493-6.1,26.458-.576,10.23.046,48.549-3.778,58.941-6.476,17.6-27.318.189-36.464-6.85-22.578-17.377-42.566-37.248-62.825-57.016-40.488-39.507-79.982-79.964-119.662-120.25V3309.363" opacity="0.2" fill="url(#linear-gradient-28)"/>
          <path id="路径_917" data-name="路径 917" d="M1017.013,4856.789V3706.073q-391.341-435.434-784.025-869.68-97.821-108.711-195.352-217.674c-30.513-34.02-61.224-67.864-91.389-102.191-37.392-42.55-61.5-77.447-85.663-128.717-24.972-52.987-43.737-108.489-71.336-160.47-2.381-4.485-17.562-33.984-26.205-32.39-6.591,1.216-6.461,14.418-6.812,18.472-.954,10.986.29,41.377-3.112,52.5-5.1,16.651-23.46-.223-31.588-7.183-21.014-18-39.446-38.25-58.181-58.372-38.758-41.626-76.539-84.1-114.508-126.421V3278.066" opacity="0.2" fill="url(#linear-gradient-29)"/>
          <path id="路径_918" data-name="路径 918" d="M851.356,4976.772V3774.7q-345.189-426.113-691.8-851.088-86.436-106.4-172.538-213.069c-57.456-71.059-116.271-141.014-171.884-213.555-31.629-41.255-57.015-85.9-83.03-130.465-11.085-18.99-21.684-37.958-36.565-54.656-2.539-2.849-8.972-10.433-14.3-8.84-2.745.822-3.8,3.15-5.68,4.747-1.749,1.487-3.222,1.451-5.236.61-7.657-3.2-11.831-9.275-17.033-14.8-17.941-19.054-34.315-39.338-50.923-59.475-41.566-50.4-82.491-101.3-123.561-152.1V3308.986" opacity="0.2" fill="url(#linear-gradient-30)"/>
          <path id="路径_919" data-name="路径 919" d="M1201.307,1883.457q157.863,43.781,315.727,87.561c65.831,18.257,131.21,38.026,197.6,54.4,12.848,3.17,25.784,5.911,38.739,8.595,27.111,5.617,53.993,11.855,80.546,19.757,49.985,14.875,99.341,31.692,149.458,46.17,54.82,15.838,109.865,30.872,164.851,46.122q157.8,43.766,315.592,87.524,626.978,173.88,1254.105,347.224c3.026.839,6.052,1519.709,9.078,1520.548" opacity="0.2" fill="url(#linear-gradient-31)"/>
          <path id="路径_920" data-name="路径 920" d="M1158.6,1888.38q158.114,44.962,316.228,89.922c56.447,16.049,112.529,33.289,169.449,47.768,8.2,2.085,16.32,3.831,24.866,4.107,13.985.45,26.894-2.844,40.142-6.082,33.135-8.1,52.648-7.787,83.911,7.461,24.592,11.993,46.765,27.724,70.392,41.181a489.441,489.441,0,0,0,73.654,34.116c52.021,19.138,105.493,32.914,158.664,48.044q158.045,44.973,316.1,89.9,628.071,178.657,1256.331,356.658c2.95.838,5.9,1519.707,8.848,1520.546" opacity="0.2" fill="url(#linear-gradient-32)"/>
          <path id="路径_921" data-name="路径 921" d="M3625.676,4143.34c-2.541-.741-5.081-1519.513-7.623-1520.254-417.984-121.884-836.485-242.024-1253.985-365.543q-157.394-46.564-315.057-92.219c-53-15.367-106.207-29.587-157.821-49.6a519.674,519.674,0,0,1-73.263-35.161c-23.5-13.633-45.649-29.357-70.032-41.664-31.463-15.881-51.487-17.243-85.336-8.414-13.415,3.5-26.446,7.26-40.708,7.013-8.449-.146-16.455-1.8-24.549-3.881-56.131-14.426-111.276-32.005-166.852-48.219q-157.668-46-315.335-92.008V3058.168" opacity="0.2" fill="url(#linear-gradient-33)"/>
          <path id="路径_922" data-name="路径 922" d="M3573.667,4164.887c-2.927-.876-5.854-1519.783-8.78-1520.659q-309.719-92.692-619.509-185.142c-85.589-25.578-542.64-161.432-627.412-189.778-103.548-34.624-207.615-67.247-312.884-96.455-53.315-14.793-106.741-28.412-158.269-49.356a662.451,662.451,0,0,1-73.413-35.68c-23.27-12.986-45.742-27.248-70.151-38.342-31.913-14.506-52.793-16.426-87.025-9.42-13.707,2.806-27.1,5.917-41.412,5.318a112.947,112.947,0,0,1-24.309-4.134c-55.4-14.654-109.793-32.429-164.629-48.846q-156.992-47-313.982-94.017V3056.315" opacity="0.2" fill="url(#linear-gradient-34)"/>
          <path id="路径_923" data-name="路径 923" d="M3519.1,4187.494c-2.384-.733-4.768-1519.5-7.152-1520.231q-309.717-95.235-619.515-190.217-156.623-48.091-313.24-96.2c-60.936-18.728-121.922-37.3-182.729-56.433-19.262-6.062-38.5-12.169-57.522-18.948-23.815-8.486-47.012-18.24-69.962-28.762-52.925-24.263-105.02-49.89-160.5-68.716-48.344-16.405-97.364-29.26-147.322-39.731-53.675-11.25-107.731-18.629-159.553-39.207-25.822-10.252-49.941-23.24-73.832-37.126-23.165-13.464-45.7-27.782-70.508-38.517-32.538-14.081-54.6-15.456-88.927-7.322-13.926,3.3-27.477,7.047-42.173,6.768a100.743,100.743,0,0,1-24.092-3.788c-11.426-3.026-22.687-6.564-33.985-10q-63.877-19.438-127.657-39.192-156.588-48.165-313.171-96.346V3051.866" opacity="0.2" fill="url(#linear-gradient-35)"/>
          <path id="路径_924" data-name="路径 924" d="M3462.986,4210.743c-2.6-.823-5.2-1519.677-7.805-1520.5q-310.282-98.089-620.651-195.919-157.07-49.585-314.123-99.225c-59.76-18.91-119.647-37.409-179.059-57.4-19.29-6.49-38.463-13.1-57.056-21.476-24.618-11.095-46.683-25.338-68.159-41.357-48.94-36.5-93.484-77.435-151.183-102.945-45.513-20.123-91.159-30.6-140.733-33.932-54.48-3.658-108.442,7.068-163.56-6.555-56.039-13.852-97.3-50.741-147.061-74.02-31.358-14.671-58.815-17.819-92.457-7.87-14.36,4.246-28.159,9.563-43.6,10.271a81.337,81.337,0,0,1-24-2.766c-10.736-2.713-21.24-6.124-31.8-9.407-41.9-13.035-83.718-26.357-125.561-39.588q-157.034-49.655-314.06-99.333V3101.766" opacity="0.2" fill="url(#linear-gradient-36)"/>
          <path id="路径_925" data-name="路径 925" d="M3404.852,4234.827c-2.882-.937-5.763-1519.905-8.644-1520.843q-316.089-102.82-632.266-205.373-160.056-52-320.069-104.138c-56.351-18.42-113.012-35.785-168.461-56.944-18.832-7.187-37.022-14.917-53.942-26.188-28.311-18.858-48.526-43.394-68.62-69.621-38.622-50.407-76.456-114.061-132.445-152-37.351-25.31-80.989-37.041-126.228-33.164-30.785,2.638-58.153,12.4-85.942,24.392-26.4,11.4-51.6,24.547-80.666,29.95-59.746,11.107-104.262-25.54-148.579-49.606-33.093-17.971-61.971-29.3-101.427-18.678-15.869,4.271-30.759,11.287-47.351,13.652a69.3,69.3,0,0,1-24.578-.812c-9.505-2-18.648-5.048-27.868-7.947-40.566-12.755-80.934-26.1-121.368-39.253q-160.14-52.086-320.262-104.229V3091.636" opacity="0.2" fill="url(#linear-gradient-37)"/>
          <path id="路径_926" data-name="路径 926" d="M3345.424,4259.448c-2.656-.889-5.311-1519.81-7.967-1520.7q-331.589-111.052-663.274-221.82c-111.883-37.434-223.85-74.618-335.507-112.717-31.1-10.611-62.2-21.173-92.949-32.773-15.6-5.887-31.057-11.952-45.96-19.516-18.692-9.486-34.348-21.157-48.131-36.966-29.521-33.861-52.316-84.152-70.488-123.615-18.354-39.858-35.776-80.08-56.738-118.777-15.8-29.163-32.471-56.621-56.477-80.48-29.866-29.683-66.673-46.237-110.317-37.315-65.365,13.362-115,80.866-156.325,119.043-46.655,43.1-79.116,53.422-138.854,24.6-35.8-17.271-75.343-43.765-120.381-40.6-19.448,1.366-36.943,8.62-55.347,13.215-9.02,2.252-17.772,3.594-27.182,2.684-7.848-.759-15.2-2.979-22.645-5.231-37.458-11.329-74.334-24.311-111.418-36.715q-167.793-56.127-335.534-112.411v1152.7" opacity="0.2" fill="url(#linear-gradient-38)"/>
          <path id="路径_927" data-name="路径 927" d="M3283.59,4285.066c-2.8-.968-5.606-1519.966-8.409-1520.934q-354.573-122.39-709.247-244.486-121.134-41.8-242.165-83.881c-38.754-13.557-77.528-27.032-115.893-41.665-62.77-23.942-98.01-39.015-130.289-103.251-28.843-57.4-50.586-132.652-69.758-193.062-15.613-49.191-31.148-98.283-50.923-146.121-13.714-33.179-28.187-64.889-51.2-93.445-25.076-31.109-58.319-52.024-100.556-36.452-28.546,10.525-46.566,29.321-64.831,51.517-23.829,28.959-42.424,60.74-61.131,92.821-18.266,31.323-35.588,63.04-57.4,92.337-15.1,20.286-29.2,38.308-54.785,48.026-27.147,10.311-54.028.142-77.591-9.474-24.224-9.885-47.819-20.641-73.877-26.035-23.7-4.908-45.48-3.647-68.72,2.306-10.816,2.77-21.4,6.152-32.677,7.213a60.5,60.5,0,0,1-19.449-1.4c-8.018-1.826-15.783-4.379-23.58-6.9-23.332-7.552-46.484-15.607-69.671-23.57Q1021.966,1986.98,842.694,1924.8V3212.489" opacity="0.2" fill="url(#linear-gradient-39)"/>
          <path id="路径_928" data-name="路径 928" d="M3219.651,4311.555c-3.945-1.4-7.889-1520.84-11.834-1522.245q-377.634-134.468-755.371-268.659c-97.065-34.592-194.539-67.992-290.582-105.419-30.515-11.892-60.782-22.626-87.784-42.562-43.508-32.12-61.342-91.595-75.542-137-24.41-78.056-41.875-157.689-61.734-236.813-14.389-57.329-29.106-114.393-48.816-170.3-12.75-36.168-26.033-70.942-49.233-102.64-23.857-32.6-56.148-53.167-96.269-29.983-23.406,13.524-37.99,32.549-52.37,53.99-19.925,29.709-35.061,61.379-49.512,93.786-27.574,61.838-55.781,143.812-90.64,202.922-18.669,31.657-41.582,65.188-86.547,61.693-29.836-2.319-56.033-14.54-83.936-22.24-25.608-7.066-49.983-13.491-77.512-9.905-12.474,1.625-24.191,5.689-36.227,8.783-6.224,1.6-12.287,2.813-18.836,2.388a80.474,80.474,0,0,1-16.975-3.439c-17.491-4.992-34.526-11.209-51.662-17.2-128.108-44.752-255.726-90.841-383.544-136.385V3175.2" opacity="0.2" fill="url(#linear-gradient-40)"/>
          <path id="路径_929" data-name="路径 929" d="M3153.268,4339.058c-5.034-1.852-10.068-1521.734-15.1-1523.585q-395.415-145.407-790.92-290.578c-72.675-26.792-145.459-53.276-217.632-81.4-30.356-11.828-60.677-23.336-89.5-38.833-31.095-16.716-51.839-37.872-67.454-69.344-25.762-51.925-40.755-118.628-53.569-173.871-18.322-78.989-33.874-158.542-51.263-237.719-13.934-63.445-28.365-126.568-48.314-188.586-12.33-38.33-25-75.307-48.556-109.238-23.422-33.74-55.289-53.6-93.923-26.551-21.384,14.97-34.515,34.434-47.28,55.988-18.227,30.775-31.766,63.183-44.437,96.352-29.307,76.722-50.909,155.917-80.534,232.543-11.722,30.319-23.515,59.767-43.361,86.457-11.711,15.75-23.436,27.658-43.668,33.107-25.177,6.781-64.121-3.736-86.937-9.016-19.255-4.454-59.476-15.855-80.048-15.642-13.289.137-24.936,3.971-36.932,8.757-5.979,2.385-11.789,4.945-18.288,5.979a37.6,37.6,0,0,1-12.783-.339c-11.626-2.075-22.487-6.143-33.53-9.932-35.761-12.269-71.158-25.494-106.64-38.5q-148.434-54.419-296.753-109.143v1213.43" opacity="0.2" fill="url(#linear-gradient-41)"/>
          <path id="路径_930" data-name="路径 930" d="M3085.255,4367.235c-2.971-1.129-5.943-1520.29-8.914-1521.419q-407.568-154.914-815.225-309.593c-72.708-27.739-145.631-54.878-217.5-84.783-28.348-11.8-56.484-23.121-82.255-40.515-35.209-23.762-50.225-54.943-63.789-92.2-22.361-61.419-35.117-124.571-48.356-188.047-16.5-79.1-31.2-158.552-47.589-237.678-13.771-66.5-28.1-132.674-47.977-197.8-12.132-39.749-24.664-78.219-47.864-113.864-20.944-32.18-51.75-57.683-91.361-34.217-21.464,12.716-34.11,30.494-46.511,50.713-18.449,30.079-31.317,61.981-43.238,94.814-30.046,82.753-50.374,168.164-76.951,251.839-11.382,35.837-22.9,71.1-41.46,104.379-10.79,19.351-21.492,35.961-42.65,46.859-25.327,13.046-62.466,7.038-87.152,2.962-13.883-2.293-27.553-5.307-41.136-8.944-12.845-3.44-25.354-7.607-38.889-8.553-13.654-.955-24.75,2.6-36.459,8.85-5.851,3.122-11.41,6.719-17.638,9.208-12.308,4.918-22.045.94-33.161-2.513-31.471-9.775-61.94-22.031-92.7-33.626Q856.434,2002.77,696.7,1941.625V3106.048" opacity="0.2" fill="url(#linear-gradient-42)"/>
          <path id="路径_931" data-name="路径 931" d="M3014.325,4350.417c-2.97-1.168-5.939-1474.163-8.909-1475.331Q2601.006,2716,2196.493,2557.158c-71.881-28.379-143.957-56.226-215.02-86.632-28.682-12.273-57.185-24.118-83.39-41.657-34.693-23.221-50.6-53.427-64.307-90.28-22.55-60.634-35.151-123.068-48.327-185.831-16.654-79.332-31.444-159.022-47.824-238.405-13.523-65.536-27.593-130.788-46.562-195.113-11.9-40.338-24.463-79.559-46.122-116.441-17.908-30.5-44.6-62.742-87.061-54.029-22.379,4.591-36.2,16.519-50.091,32.974-21.391,25.341-33.984,53.776-45.865,83.8-34.469,87.118-53.192,178.074-79.31,267.252-10.711,36.57-21.576,72.642-39.015,107.011-10.279,20.257-20.664,37.981-41.247,50.751-24.469,15.18-60.622,12.93-86.141,10.076a248.642,248.642,0,0,1-40.536-8c-12.607-3.583-24.73-8.371-38.1-9.592-13.933-1.273-24.257,2.859-35.351,10.39-17.39,11.805-22.837,19.337-46.2,12.687-29.8-8.483-58.029-20.674-86.745-31.832C861.5,2032.4,754.023,1989.774,646.434,1947.42V3085.868" opacity="0.2" fill="url(#linear-gradient-43)"/>
          <path id="路径_932" data-name="路径 932" d="M2941.062,4380.769c-2.965-1.208-5.931-1474.244-8.9-1475.453q-390.026-158.967-780.172-317.642c-69.3-28.312-138.686-56.419-207.525-85.836-31.143-13.309-62.259-26.424-92.042-42.737-30.522-16.719-53.639-36.175-70.4-67.445-26.4-49.252-41-114.988-53.385-167.872-18.679-79.787-34.324-160.182-51.549-240.258-13.116-60.977-26.672-121.744-44.112-181.736-11.536-39.685-23.885-78.461-43.554-115.362-18.164-34.079-39.853-62.267-81.7-71.229-55.456-11.876-85.708,15.792-109.331,60.748-20.938,39.846-33.164,81.874-45.392,124.532-14.129,49.291-26.346,99.085-40.937,148.258-9.947,33.519-20.082,66.463-36.9,97.664-10.081,18.707-20.636,34.566-40.115,45.811-23.381,13.5-59.648,13.553-84.338,11.2a195.415,195.415,0,0,1-39.378-8.082c-12.123-3.74-23.615-8.731-36.826-9.2-14.406-.508-23.644,5.581-33.791,14.15-5.35,4.518-10.2,9.539-16.241,13.324a21.117,21.117,0,0,1-10.34,3.49c-8.511.511-15.775-2.272-23.456-4.781-31.632-10.33-62.044-23.475-92.8-35.9-100.907-40.743-201.584-82.039-302.343-123.137V3001.767" opacity="0.2" fill="url(#linear-gradient-44)"/>
          <path id="路径_933" data-name="路径 933" d="M2865.084,4412.247c-3.332-1.409-6.664-1474.645-10-1476.054q-368.065-155.634-736.276-310.934c-92.138-39-184.661-77.048-275.7-118.6-31.847-14.537-63.543-28.073-91.681-50-43.1-33.582-59.417-88.538-73.4-135.268-23.451-78.4-40.1-158.234-58.68-237.715-13.276-56.8-26.757-113.46-43.656-169.378-11.511-38.091-23.675-75.336-43.077-110.647-19.97-36.346-39.515-55.132-80.186-68.041-21.492-6.821-42.621-14.66-64.553-20.219-23.8-6.032-40.2-3.7-57.354,15.229-25,27.595-38.619,73.491-48.975,106.483-15.347,48.889-27.644,98.626-43.712,147.324-27.758,84.123-52.064,136.82-155.794,124.5-13.009-1.545-25.346-4.891-37.686-9.016-11.493-3.842-22.188-8.61-35.127-7.681-14.517,1.044-22.6,9.051-31.912,18.077-4.949,4.8-9.3,9.99-15.718,13.319a20.032,20.032,0,0,1-12,1.969c-11.543-1.193-21.652-5.661-32.17-9.646-34.168-12.947-67.657-27.439-101.306-41.592q-136.254-57.311-272.294-115.114V3026.523" opacity="0.2" fill="url(#linear-gradient-45)"/>
          <path id="路径_934" data-name="路径 934" d="M943.109,2102.13c12.442-2.155,22.453,2.065,33.4,5.871,11.775,4.1,23.488,7.973,35.892,10.041,21.651,3.609,56.047,3.512,77.52-2.885,15.737-4.689,27.306-12.674,37.937-24.871,16.234-18.623,25.415-39.748,34.291-62,17.094-42.853,28.957-87.321,44.554-130.619,6.648-18.452,13.527-36.555,23.645-53.608,6.626-11.167,12.43-21.108,25.9-26.379,21.915-8.579,46.5,16.525,58.933,27.413,20,17.51,38.613,33.355,66.569,39.05,39.4,8.028,57.807,2.5,85.293,40.035,22.742,31.052,34.591,65.343,46.666,100.705,18.449,54.026,32.828,109.057,47.435,164.118,17.268,65.092,35.808,142.758,61.732,205.608,26.1,63.264,53.249,84.134,112.624,114.168,36.761,18.594,74.367,35.3,111.946,52.139,78.832,35.323,157.965,69.974,237.055,104.725q345.837,151.953,691.829,303.562c3.12,1.371,6.239,1474.569,9.359,1475.94" opacity="0.2" fill="url(#linear-gradient-46)"/>
          <path id="路径_935" data-name="路径 935" d="M2703.78,4479.075c-3.574-1.634-7.147-1475.1-10.721-1476.728q-326.054-149.073-652.284-297.764c-110.449-50.464-221.283-100.079-330.794-152.562-36.777-17.626-73.781-33.613-106.579-59.063-18.073-14.024-31.294-30.418-42.36-50.134-26.5-47.217-45.109-112.514-60.886-163.1-16.769-53.767-32.443-107.713-54.457-159.859-7.649-18.117-15.827-35.7-26.91-52.16-7.219-10.724-14.717-20.194-26.145-27.224-33.826-20.81-61.513,10.58-94.251-1.161-27.941-10.02-49.024-45.345-63.1-66.252-9.218-13.692-18.107-27.5-29.161-39.958-7.628-8.6-13.843-16.661-27-18.108-24.11-2.651-40.8,39.135-47.1,53.456-14.985,34.033-26.238,69.484-43.06,102.857-15.092,29.941-32.056,56.045-70.027,62.158-20.773,3.346-53.739,1.766-74.17-2.592-13.792-2.941-50.543-19.031-66.858-15.584-12.924,2.731-20.217,11.134-28.88,19.224-4.6,4.292-8.486,8.647-15.4,9.893-5.817,1.047-10.752-.507-16.051-2.135-16.757-5.153-32.42-12.58-48.338-19.6-111.2-49.066-221.22-100.618-331.713-151.178V3013.655" opacity="0.2" fill="url(#linear-gradient-47)"/>
          <path id="路径_936" data-name="路径 936" d="M1724.76,4475.972V3412.854L831.442,2747.8c-60.821-45.45-120.752-92.045-182-136.954-75.642-55.466-110.324-75.429-174.983-144.807-25.837-27.721-50.6-56.368-77.951-82.756-11.351-10.953-22.456-22.035-32.462-34.268-14.013-17.132-26.28-35.454-39.284-53.28-22.8-31.251-44.264-59.852-81.731-77.454-12.495-5.869-41.429-16.668-56.862-12.911-11.309,2.752-13.928,10.721-17.918,19.5-3.062,6.739-6.687,22.345-16.735,14.836l-267.887-200.43V3184.816" opacity="0.2" fill="url(#linear-gradient-48)"/>
          <path id="路径_937" data-name="路径 937" d="M2136.6,2424.642l1042.076,375.464,13.417,1522.865" opacity="0.2" fill="url(#linear-gradient-49)"/>
        </g>
      </g>
    </g>
  </g>
</svg>
